<?xml version="1.0" encoding="UTF-8"?>
<svg width="1440px" height="514px" viewBox="0 0 1440 514" version="1.1" xmlns="http://www.w3.org/2000/svg" xmlns:xlink="http://www.w3.org/1999/xlink">
    <!-- Generator: Sketch 49.2 (51160) - http://www.bohemiancoding.com/sketch -->
    <title>Icons/background</title>
    <desc>Created with Sketch.</desc>
    <defs>
        <linearGradient x1="50%" y1="100%" x2="50%" y2="3.061617e-15%" id="linearGradient-1">
            <stop stop-color="#92DAFF" offset="0%"></stop>
            <stop stop-color="#59B3FF" offset="100%"></stop>
        </linearGradient>
        <polygon id="path-2" points="0.552853331 0.128 45.624 0.128 45.624 44.4591833 0.552853331 44.4591833"></polygon>
        <polygon id="path-4" points="0.000388888889 0.223828571 9.8385 0.223828571 9.8385 10 0.000388888889 10"></polygon>
        <polygon id="path-6" points="0.552853331 0.128 45.624 0.128 45.624 44.4591833 0.552853331 44.4591833"></polygon>
        <polygon id="path-8" points="0.000388888889 0.223828571 9.8385 0.223828571 9.8385 10 0.000388888889 10"></polygon>
    </defs>
    <g id="Page-1" stroke="none" stroke-width="1" fill="none" fill-rule="evenodd">
        <g id="Desktop">
            <g id="Icons/background">
                <path d="M0,0 L1440,0 L1440,358.204869 C1348.28125,462.06829 1108.28125,514 720,514 C331.71875,514 91.71875,462.06829 0,358.204869 L0,0 Z" id="Rectangle-2" fill="url(#linearGradient-1)"></path>
                <path d="M719.800005,143.60001 C720.794008,143.60001 721.60001,142.794008 721.60001,141.800005 C721.60001,140.806002 720.794008,140 719.800005,140 C718.806002,140 718,140.806002 718,141.800005 C718,142.794008 718.806002,143.60001 719.800005,143.60001" id="Page-1" fill="#FEFEFE"></path>
                <path d="M1159.80001,63.60001 C1160.79401,63.60001 1161.60001,62.7940078 1161.60001,61.800005 C1161.60001,60.8060022 1160.79401,60 1159.80001,60 C1158.806,60 1158,60.8060022 1158,61.800005 C1158,62.7940078 1158.806,63.60001 1159.80001,63.60001" id="Page-1" fill="#FEFEFE"></path>
                <path d="M1375.80001,74.60001 C1376.79401,74.60001 1377.60001,73.7940078 1377.60001,72.800005 C1377.60001,71.8060022 1376.79401,71 1375.80001,71 C1374.806,71 1374,71.8060022 1374,72.800005 C1374,73.7940078 1374.806,74.60001 1375.80001,74.60001" id="Page-1-Copy-9" fill="#FEFEFE"></path>
                <path d="M529.800005,43.60001 C530.794008,43.60001 531.60001,42.7940078 531.60001,41.800005 C531.60001,40.8060022 530.794008,40 529.800005,40 C528.806002,40 528,40.8060022 528,41.800005 C528,42.7940078 528.806002,43.60001 529.800005,43.60001" id="Page-1-Copy-4" fill="#FEFEFE"></path>
                <path d="M449.800005,163.60001 C450.794008,163.60001 451.60001,162.794008 451.60001,161.800005 C451.60001,160.806002 450.794008,160 449.800005,160 C448.806002,160 448,160.806002 448,161.800005 C448,162.794008 448.806002,163.60001 449.800005,163.60001" id="Page-1-Copy-7" fill="#FEFEFE"></path>
                <path d="M228.800005,105 C229.794008,105 230.60001,104.193998 230.60001,103.199995 C230.60001,102.205992 229.794008,101.39999 228.800005,101.39999 C227.806002,101.39999 227,102.205992 227,103.199995 C227,104.193998 227.806002,105 228.800005,105" id="Page-1-Copy-2" fill="#FEFEFE"></path>
                <path d="M982.5,40 C984.432778,40 986,38.4327778 986,36.5 C986,34.5672222 984.432778,33 982.5,33 C980.567222,33 979,34.5672222 979,36.5 C979,38.4327778 980.567222,40 982.5,40" id="Page-1" fill="#FEFEFE"></path>
                <path d="M665.5,51 C667.432778,51 669,49.4327778 669,47.5 C669,45.5672222 667.432778,44 665.5,44 C663.567222,44 662,45.5672222 662,47.5 C662,49.4327778 663.567222,51 665.5,51" id="Page-1-Copy-11" fill="#FEFEFE"></path>
                <path d="M1298.5,311 C1300.43278,311 1302,309.432778 1302,307.5 C1302,305.567222 1300.43278,304 1298.5,304 C1296.56722,304 1295,305.567222 1295,307.5 C1295,309.432778 1296.56722,311 1298.5,311" id="Page-1-Copy-5" fill="#FEFEFE"></path>
                <path d="M1410.5,399 C1412.43278,399 1414,397.432778 1414,395.5 C1414,393.567222 1412.43278,392 1410.5,392 C1408.56722,392 1407,393.567222 1407,395.5 C1407,397.432778 1408.56722,399 1410.5,399" id="Page-1-Copy-8" fill="#FEFEFE"></path>
                <path d="M392,71 C394.761111,71 397,68.7611111 397,66 C397,63.2388889 394.761111,61 392,61 C389.238889,61 387,63.2388889 387,66 C387,68.7611111 389.238889,71 392,71" id="Page-1-Copy-3" fill="#FEFEFE"></path>
                <path d="M41,140 C43.7611111,140 46,137.761111 46,135 C46,132.238889 43.7611111,130 41,130 C38.2388889,130 36,132.238889 36,135 C36,137.761111 38.2388889,140 41,140" id="Page-1-Copy-10" fill="#FEFEFE"></path>
                <path d="M90,351 C92.7611111,351 95,348.761111 95,346 C95,343.238889 92.7611111,341 90,341 C87.2388889,341 85,343.238889 85,346 C85,348.761111 87.2388889,351 90,351" id="Page-1-Copy-6" fill="#FEFEFE"></path>
                <g id="Icons/raket2" transform="translate(1295.000000, 140.000000)">
                    <g id="Group-12" transform="translate(1.000000, 0.000000)">
                        <g id="Group-3">
                            <mask id="mask-3" fill="white">
                                <use xlink:href="#path-2"></use>
                            </mask>
                            <g id="Clip-2"></g>
                            <path d="M44.8463067,1.68135 C45.8662067,5.45231667 45.8850067,9.43948333 44.89174,13.21045 C44.73664,13.80265 44.5549067,14.38545 44.3543733,14.94945 C44.3449733,15.0027167 44.32774,15.04815 44.29954,15.0920167 C43.16214,18.2363167 41.3307067,21.1127167 38.90864,23.4956167 C38.89924,23.5050167 38.89924,23.5050167 38.88984,23.5144167 C38.88044,23.52225 38.8726067,23.53165 38.8538067,23.54105 C38.8444067,23.5488833 38.8350067,23.5582833 38.8256067,23.5676833 L34.8368733,26.9454167 C34.9011067,32.2485833 32.76104,37.4091833 28.94464,41.17075 C27.7069733,42.3896167 26.30324,43.4471167 24.8008067,44.3072167 C24.6284733,44.4059167 24.43734,44.4591833 24.2368067,44.4591833 C24.0911067,44.4591833 23.9454067,44.43255 23.7997067,44.3698833 C23.4707067,44.23515 23.23414,43.95785 23.1526733,43.6257167 L21.5672067,37.4984833 L18.26154,38.69855 C17.7617733,38.87715 17.24164,38.9680167 16.7230733,38.9680167 C15.5480733,38.9680167 14.4012733,38.51995 13.5443067,37.6770833 L7.43274,31.6657833 C6.20447333,30.4563167 5.79400667,28.6374167 6.39560667,27.0253167 L7.61604,23.7729167 L1.39480667,22.2140833 C1.05797333,22.1341833 0.775973333,21.89135 0.639673333,21.5780167 C0.503373333,21.2552833 0.530006667,20.8980833 0.70234,20.6019833 C1.57810667,19.1246167 2.65284,17.7537833 3.89050667,16.5255167 C7.71630667,12.76395 12.9615067,10.6661833 18.3524067,10.72885 L21.78654,6.80591667 C21.79594,6.79651667 21.80534,6.78711667 21.8131733,6.77928333 C21.8225733,6.76988333 21.8319733,6.76048333 21.8413733,6.75265 C21.8507733,6.74325 21.8507733,6.74325 21.8601733,6.73385 C24.28224,4.36035 27.20564,2.55085 30.40164,1.43068333 C30.4470733,1.41188333 30.5019067,1.39465 30.54734,1.37741667 C31.14894,1.18001667 31.73174,0.99985 32.33334,0.847883333 C36.1763733,-0.12815 40.22934,-0.110916667 44.0535733,0.893316667 C44.44524,0.99985 44.74604,1.29595 44.8463067,1.68135 Z M42.7516733,12.5837833 C43.57104,9.40345 43.6070733,6.06175 42.85194,2.87358333 C39.60894,2.12941667 36.2124067,2.15605 32.9788067,2.96288333 L42.7516733,12.5837833 Z M41.97774,14.94005 L30.57554,3.72428333 C27.91534,4.74575 25.4932733,6.29518333 23.4534733,8.29268333 L19.7107067,12.5743833 C19.7013067,12.5837833 19.6919067,12.5931833 19.6825067,12.6025833 L10.6303067,22.9754833 L22.4053733,34.5594167 L37.3325733,21.9461833 C39.3629733,19.9392833 40.94844,17.5469833 41.97774,14.94005 Z M32.5150733,28.9241167 L23.6085733,36.4503833 L24.9465067,41.6188167 C25.8034733,41.0281833 26.61344,40.3654833 27.36074,39.6213167 C30.29354,36.7449167 32.1046067,32.9473167 32.5150733,28.9241167 Z M20.32014,35.6263167 L18.87254,34.20065 L15.37574,36.3516833 C15.9757733,36.79035 16.7685067,36.9062833 17.4782067,36.6477833 L20.32014,35.6263167 Z M13.73544,34.7662167 L17.25104,32.60735 L15.7204067,31.1017833 L12.86124,33.91395 L13.73544,34.7662167 Z M8.70800667,21.7942167 L16.35804,13.03185 C12.27844,13.4344833 8.40720667,15.21735 5.47597333,18.10315 C4.72867333,18.8379167 4.04560667,19.6337833 3.44400667,20.47665 L8.70800667,21.7942167 Z M11.2851733,32.3551167 L14.1459067,29.54295 L12.6246733,28.0467833 L10.4297733,31.5044167 L11.2851733,32.3551167 Z M8.80827333,29.8829167 L10.9937733,26.4425167 L9.54617333,25.0184167 L8.50747333,27.81335 C8.24427333,28.5120833 8.36177333,29.2922833 8.80827333,29.8829167 Z" id="Fill-1" fill="#003A54" mask="url(#mask-3)"></path>
                        </g>
                        <path d="M30.57507,3.72397 L41.97727,14.9397367 C40.93857,17.54667 39.36407,19.93897 37.3321033,21.94587 L22.40647,34.5591033 L10.6298367,22.9767367 L19.6914367,12.60227 C19.7008367,12.59287 19.7102367,12.58347 19.7196367,12.5756367 L23.4624033,8.29237 C25.4928033,6.29487 27.9164367,4.74543667 30.57507,3.72397 M32.9517033,22.2059367 C35.6479367,19.55357 35.6479367,15.2452367 32.9517033,12.60227 C31.6498033,11.3207367 29.9108033,10.6126033 28.06997,10.6126033 C26.2307033,10.6126033 24.4917033,11.3207367 23.1898033,12.60227 C21.8863367,13.8838033 21.1672367,15.5946033 21.1672367,17.4041033 C21.1672367,19.2136033 21.8863367,20.9244033 23.1898033,22.2059367 C24.4917033,23.48747 26.2307033,24.1940367 28.06997,24.1940367 C29.9108033,24.1940367 31.6498033,23.4953033 32.9517033,22.2059367" id="Fill-4" fill="#FEFEFE"></path>
                        <path d="M32.9521733,12.6019567 C35.6484067,15.2543233 35.6484067,19.5626567 32.9521733,22.2056233 C31.6502733,23.4871567 29.9097067,24.1937233 28.07044,24.1937233 C26.2311733,24.1937233 24.4921733,23.4871567 23.1887067,22.2056233 C21.8868067,20.92409 21.1677067,19.21329 21.1677067,17.40379 C21.1677067,15.58489 21.8868067,13.88349 23.1887067,12.6019567 C24.4921733,11.3204233 26.2311733,10.6138567 28.07044,10.6138567 C29.9097067,10.6138567 31.6502733,11.3204233 32.9521733,12.6019567 M31.3682733,20.64679 C33.18874,18.8545233 33.18874,15.9436567 31.3682733,14.16079 C30.4846733,13.29129 29.3190733,12.81659 28.07044,12.81659 C26.8233733,12.81659 25.6577733,13.29129 24.7741733,14.16079 C23.8905733,15.03029 23.40804,16.17709 23.40804,17.40379 C23.40804,18.63049 23.8905733,19.77729 24.7741733,20.64679 C25.6577733,21.51629 26.8233733,21.99099 28.07044,21.99099 C29.3190733,22.00039 30.4846733,21.51629 31.3682733,20.64679" id="Fill-6" fill="#003A54"></path>
                        <path d="M23.6079467,36.45007 L32.5144467,28.92537 C32.1055467,32.9376033 30.2929133,36.74617 27.3695133,39.6304033 C26.6222133,40.36517 25.8122467,41.03727 24.95528,41.6279033 L23.6079467,36.45007 Z" id="Fill-8" fill="#FEFEFE"></path>
                        <path d="M18.8722267,34.2014333 L20.3198267,35.6255333 L17.4872933,36.647 C16.7775933,36.9070667 15.97546,36.7817333 15.3848267,36.3509 L18.8722267,34.2014333 Z" id="Fill-10" fill="#FEFEFE"></path>
                    </g>
                    <polygon id="Fill-13" fill="#FEFEFE" points="18 33.6434374 14.7896996 36 14 35.071398 16.6108727 32"></polygon>
                    <path d="M17,14 L9.29343207,23 L4,21.6467012 C4.60446765,20.7809762 5.28469103,19.9619167 6.04540488,19.2088325 C8.99040913,16.2447702 12.8807818,14.4232076 17,14" id="Fill-14" fill="#FEFEFE"></path>
                    <polygon id="Fill-16" fill="#FEFEFE" points="15 30.388586 11.9301934 33 11 32.2090149 13.3566022 29"></polygon>
                    <g id="Group-26" transform="translate(0.000000, 25.000000)">
                        <path d="M12.7412444,15.7548286 C13.1752444,16.1854 13.1752444,16.8878286 12.7412444,17.3184 L8.9348,21.1008286 C8.71702222,21.3176857 8.43702222,21.4245429 8.14768889,21.4245429 C7.86768889,21.4245429 7.57835556,21.3176857 7.36057778,21.1008286 C6.92657778,20.6702571 6.92657778,19.9694 7.36057778,19.5372571 L11.1685778,15.7548286 C11.6025778,15.3242571 12.3072444,15.3242571 12.7412444,15.7548286" id="Fill-17" fill="#003A54"></path>
                        <path d="M11.9093333,2.39265714 L9.73933333,5.84351429 C9.296,5.24951429 9.17777778,4.46851429 9.44066667,3.76765714 L10.472,0.973657143 L11.9093333,2.39265714 Z" id="Fill-19" fill="#FEFEFE"></path>
                        <g id="Group-23" transform="translate(0.000000, 12.000000)">
                            <mask id="mask-5" fill="white">
                                <use xlink:href="#path-4"></use>
                            </mask>
                            <g id="Clip-22"></g>
                            <path d="M9.513,0.546757143 C9.947,0.977328571 9.947,1.67975714 9.513,2.11032857 L1.89855556,9.67675714 C1.68233333,9.89204286 1.393,10.0004714 1.113,10.0004714 C0.823666667,10.0004714 0.542111111,9.89204286 0.325888889,9.67675714 C-0.108111111,9.24461429 -0.108111111,8.54375714 0.325888889,8.11318571 L7.93877778,0.546757143 C8.37433333,0.116185714 9.079,0.116185714 9.513,0.546757143" id="Fill-21" fill="#003A54" mask="url(#mask-5)"></path>
                        </g>
                        <path d="M6.27573333,9.33884286 C6.70973333,9.76941429 6.70973333,10.4718429 6.27573333,10.9024143 L3.99684444,13.1762714 C3.78062222,13.3915571 3.49906667,13.4999857 3.20973333,13.4999857 C2.92973333,13.4999857 2.6404,13.3915571 2.42417778,13.1762714 C1.99017778,12.7441286 1.99017778,12.0432714 2.42417778,11.6127 L4.71084444,9.33884286 C5.14484444,8.90827143 5.85106667,8.90827143 6.27573333,9.33884286" id="Fill-24" fill="#003A54"></path>
                    </g>
                </g>
                <g id="Icons/raket" transform="translate(157.827683, 165.827683) rotate(-84.000000) translate(-157.827683, -165.827683) translate(134.327683, 142.327683)">
                    <g id="Group-12" transform="translate(1.000000, 0.000000)">
                        <g id="Group-3">
                            <mask id="mask-7" fill="white">
                                <use xlink:href="#path-6"></use>
                            </mask>
                            <g id="Clip-2"></g>
                            <path d="M44.8463067,1.68135 C45.8662067,5.45231667 45.8850067,9.43948333 44.89174,13.21045 C44.73664,13.80265 44.5549067,14.38545 44.3543733,14.94945 C44.3449733,15.0027167 44.32774,15.04815 44.29954,15.0920167 C43.16214,18.2363167 41.3307067,21.1127167 38.90864,23.4956167 C38.89924,23.5050167 38.89924,23.5050167 38.88984,23.5144167 C38.88044,23.52225 38.8726067,23.53165 38.8538067,23.54105 C38.8444067,23.5488833 38.8350067,23.5582833 38.8256067,23.5676833 L34.8368733,26.9454167 C34.9011067,32.2485833 32.76104,37.4091833 28.94464,41.17075 C27.7069733,42.3896167 26.30324,43.4471167 24.8008067,44.3072167 C24.6284733,44.4059167 24.43734,44.4591833 24.2368067,44.4591833 C24.0911067,44.4591833 23.9454067,44.43255 23.7997067,44.3698833 C23.4707067,44.23515 23.23414,43.95785 23.1526733,43.6257167 L21.5672067,37.4984833 L18.26154,38.69855 C17.7617733,38.87715 17.24164,38.9680167 16.7230733,38.9680167 C15.5480733,38.9680167 14.4012733,38.51995 13.5443067,37.6770833 L7.43274,31.6657833 C6.20447333,30.4563167 5.79400667,28.6374167 6.39560667,27.0253167 L7.61604,23.7729167 L1.39480667,22.2140833 C1.05797333,22.1341833 0.775973333,21.89135 0.639673333,21.5780167 C0.503373333,21.2552833 0.530006667,20.8980833 0.70234,20.6019833 C1.57810667,19.1246167 2.65284,17.7537833 3.89050667,16.5255167 C7.71630667,12.76395 12.9615067,10.6661833 18.3524067,10.72885 L21.78654,6.80591667 C21.79594,6.79651667 21.80534,6.78711667 21.8131733,6.77928333 C21.8225733,6.76988333 21.8319733,6.76048333 21.8413733,6.75265 C21.8507733,6.74325 21.8507733,6.74325 21.8601733,6.73385 C24.28224,4.36035 27.20564,2.55085 30.40164,1.43068333 C30.4470733,1.41188333 30.5019067,1.39465 30.54734,1.37741667 C31.14894,1.18001667 31.73174,0.99985 32.33334,0.847883333 C36.1763733,-0.12815 40.22934,-0.110916667 44.0535733,0.893316667 C44.44524,0.99985 44.74604,1.29595 44.8463067,1.68135 Z M42.7516733,12.5837833 C43.57104,9.40345 43.6070733,6.06175 42.85194,2.87358333 C39.60894,2.12941667 36.2124067,2.15605 32.9788067,2.96288333 L42.7516733,12.5837833 Z M41.97774,14.94005 L30.57554,3.72428333 C27.91534,4.74575 25.4932733,6.29518333 23.4534733,8.29268333 L19.7107067,12.5743833 C19.7013067,12.5837833 19.6919067,12.5931833 19.6825067,12.6025833 L10.6303067,22.9754833 L22.4053733,34.5594167 L37.3325733,21.9461833 C39.3629733,19.9392833 40.94844,17.5469833 41.97774,14.94005 Z M32.5150733,28.9241167 L23.6085733,36.4503833 L24.9465067,41.6188167 C25.8034733,41.0281833 26.61344,40.3654833 27.36074,39.6213167 C30.29354,36.7449167 32.1046067,32.9473167 32.5150733,28.9241167 Z M20.32014,35.6263167 L18.87254,34.20065 L15.37574,36.3516833 C15.9757733,36.79035 16.7685067,36.9062833 17.4782067,36.6477833 L20.32014,35.6263167 Z M13.73544,34.7662167 L17.25104,32.60735 L15.7204067,31.1017833 L12.86124,33.91395 L13.73544,34.7662167 Z M8.70800667,21.7942167 L16.35804,13.03185 C12.27844,13.4344833 8.40720667,15.21735 5.47597333,18.10315 C4.72867333,18.8379167 4.04560667,19.6337833 3.44400667,20.47665 L8.70800667,21.7942167 Z M11.2851733,32.3551167 L14.1459067,29.54295 L12.6246733,28.0467833 L10.4297733,31.5044167 L11.2851733,32.3551167 Z M8.80827333,29.8829167 L10.9937733,26.4425167 L9.54617333,25.0184167 L8.50747333,27.81335 C8.24427333,28.5120833 8.36177333,29.2922833 8.80827333,29.8829167 Z" id="Fill-1" fill="#003A54" mask="url(#mask-7)"></path>
                        </g>
                        <path d="M30.57507,3.72397 L41.97727,14.9397367 C40.93857,17.54667 39.36407,19.93897 37.3321033,21.94587 L22.40647,34.5591033 L10.6298367,22.9767367 L19.6914367,12.60227 C19.7008367,12.59287 19.7102367,12.58347 19.7196367,12.5756367 L23.4624033,8.29237 C25.4928033,6.29487 27.9164367,4.74543667 30.57507,3.72397 M32.9517033,22.2059367 C35.6479367,19.55357 35.6479367,15.2452367 32.9517033,12.60227 C31.6498033,11.3207367 29.9108033,10.6126033 28.06997,10.6126033 C26.2307033,10.6126033 24.4917033,11.3207367 23.1898033,12.60227 C21.8863367,13.8838033 21.1672367,15.5946033 21.1672367,17.4041033 C21.1672367,19.2136033 21.8863367,20.9244033 23.1898033,22.2059367 C24.4917033,23.48747 26.2307033,24.1940367 28.06997,24.1940367 C29.9108033,24.1940367 31.6498033,23.4953033 32.9517033,22.2059367" id="Fill-4" fill="#FEFEFE"></path>
                        <path d="M32.9521733,12.6019567 C35.6484067,15.2543233 35.6484067,19.5626567 32.9521733,22.2056233 C31.6502733,23.4871567 29.9097067,24.1937233 28.07044,24.1937233 C26.2311733,24.1937233 24.4921733,23.4871567 23.1887067,22.2056233 C21.8868067,20.92409 21.1677067,19.21329 21.1677067,17.40379 C21.1677067,15.58489 21.8868067,13.88349 23.1887067,12.6019567 C24.4921733,11.3204233 26.2311733,10.6138567 28.07044,10.6138567 C29.9097067,10.6138567 31.6502733,11.3204233 32.9521733,12.6019567 M31.3682733,20.64679 C33.18874,18.8545233 33.18874,15.9436567 31.3682733,14.16079 C30.4846733,13.29129 29.3190733,12.81659 28.07044,12.81659 C26.8233733,12.81659 25.6577733,13.29129 24.7741733,14.16079 C23.8905733,15.03029 23.40804,16.17709 23.40804,17.40379 C23.40804,18.63049 23.8905733,19.77729 24.7741733,20.64679 C25.6577733,21.51629 26.8233733,21.99099 28.07044,21.99099 C29.3190733,22.00039 30.4846733,21.51629 31.3682733,20.64679" id="Fill-6" fill="#003A54"></path>
                        <path d="M23.6079467,36.45007 L32.5144467,28.92537 C32.1055467,32.9376033 30.2929133,36.74617 27.3695133,39.6304033 C26.6222133,40.36517 25.8122467,41.03727 24.95528,41.6279033 L23.6079467,36.45007 Z" id="Fill-8" fill="#FEFEFE"></path>
                        <path d="M18.8722267,34.2014333 L20.3198267,35.6255333 L17.4872933,36.647 C16.7775933,36.9070667 15.97546,36.7817333 15.3848267,36.3509 L18.8722267,34.2014333 Z" id="Fill-10" fill="#FEFEFE"></path>
                    </g>
                    <polygon id="Fill-13" fill="#FEFEFE" points="18 33.6434374 14.7896996 36 14 35.071398 16.6108727 32"></polygon>
                    <path d="M17,14 L9.29343207,23 L4,21.6467012 C4.60446765,20.7809762 5.28469103,19.9619167 6.04540488,19.2088325 C8.99040913,16.2447702 12.8807818,14.4232076 17,14" id="Fill-14" fill="#FEFEFE"></path>
                    <polygon id="Fill-16" fill="#FEFEFE" points="15 30.388586 11.9301934 33 11 32.2090149 13.3566022 29"></polygon>
                    <g id="Group-26" transform="translate(0.000000, 25.000000)">
                        <path d="M12.7412444,15.7548286 C13.1752444,16.1854 13.1752444,16.8878286 12.7412444,17.3184 L8.9348,21.1008286 C8.71702222,21.3176857 8.43702222,21.4245429 8.14768889,21.4245429 C7.86768889,21.4245429 7.57835556,21.3176857 7.36057778,21.1008286 C6.92657778,20.6702571 6.92657778,19.9694 7.36057778,19.5372571 L11.1685778,15.7548286 C11.6025778,15.3242571 12.3072444,15.3242571 12.7412444,15.7548286" id="Fill-17" fill="#003A54"></path>
                        <path d="M11.9093333,2.39265714 L9.73933333,5.84351429 C9.296,5.24951429 9.17777778,4.46851429 9.44066667,3.76765714 L10.472,0.973657143 L11.9093333,2.39265714 Z" id="Fill-19" fill="#FEFEFE"></path>
                        <g id="Group-23" transform="translate(0.000000, 12.000000)">
                            <mask id="mask-9" fill="white">
                                <use xlink:href="#path-8"></use>
                            </mask>
                            <g id="Clip-22"></g>
                            <path d="M9.513,0.546757143 C9.947,0.977328571 9.947,1.67975714 9.513,2.11032857 L1.89855556,9.67675714 C1.68233333,9.89204286 1.393,10.0004714 1.113,10.0004714 C0.823666667,10.0004714 0.542111111,9.89204286 0.325888889,9.67675714 C-0.108111111,9.24461429 -0.108111111,8.54375714 0.325888889,8.11318571 L7.93877778,0.546757143 C8.37433333,0.116185714 9.079,0.116185714 9.513,0.546757143" id="Fill-21" fill="#003A54" mask="url(#mask-9)"></path>
                        </g>
                        <path d="M6.27573333,9.33884286 C6.70973333,9.76941429 6.70973333,10.4718429 6.27573333,10.9024143 L3.99684444,13.1762714 C3.78062222,13.3915571 3.49906667,13.4999857 3.20973333,13.4999857 C2.92973333,13.4999857 2.6404,13.3915571 2.42417778,13.1762714 C1.99017778,12.7441286 1.99017778,12.0432714 2.42417778,11.6127 L4.71084444,9.33884286 C5.14484444,8.90827143 5.85106667,8.90827143 6.27573333,9.33884286" id="Fill-24" fill="#003A54"></path>
                    </g>
                </g>
            </g>
        </g>
    </g>
</svg>