<?xml version="1.0" encoding="UTF-8"?>
<svg width="68px" height="68px" viewBox="0 0 68 68" version="1.1" xmlns="http://www.w3.org/2000/svg" xmlns:xlink="http://www.w3.org/1999/xlink">
    <!-- Generator: Sketch 49.2 (51160) - http://www.bohemiancoding.com/sketch -->
    <title>Icons/Jij</title>
    <desc>Created with Sketch.</desc>
    <defs>
        <filter x="-11.7%" y="-8.3%" width="123.3%" height="123.3%" filterUnits="objectBoundingBox" id="filter-1">
            <feOffset dx="0" dy="2" in="SourceAlpha" result="shadowOffsetOuter1"></feOffset>
            <feGaussianBlur stdDeviation="2" in="shadowOffsetOuter1" result="shadowBlurOuter1"></feGaussianBlur>
            <feColorMatrix values="0 0 0 0 0   0 0 0 0 0   0 0 0 0 0  0 0 0 0.2 0" type="matrix" in="shadowBlurOuter1" result="shadowMatrixOuter1"></feColorMatrix>
            <feMerge>
                <feMergeNode in="shadowMatrixOuter1"></feMergeNode>
                <feMergeNode in="SourceGraphic"></feMergeNode>
            </feMerge>
        </filter>
        <circle id="path-2" cx="30" cy="30" r="30"></circle>
    </defs>
    <g id="Desktop" stroke="none" stroke-width="1" fill="none" fill-rule="evenodd">
        <g id="Desktop-alternative" transform="translate(-900.000000, -478.000000)">
            <g id="Content" transform="translate(249.000000, 91.000000)">
                <g id="2" transform="translate(356.000000, 362.000000)">
                    <g id="Icons/astronaut" transform="translate(299.000000, 27.000000)">
                        <g id="Icons/Jij" filter="url(#filter-1)">
                            <mask id="mask-3" fill="white">
                                <use xlink:href="#path-2"></use>
                            </mask>
                            <use id="Mask" fill="#59B3FF" xlink:href="#path-2"></use>
                            <g id="astronaut" mask="url(#mask-3)">
                                <g transform="translate(-2.666667, -2.666667)" id="Layer_1">
                                    <g>
                                        <circle id="Oval" fill="#386895" cx="32.6666667" cy="32.6666667" r="32.6666667"></circle>
                                        <path d="M31.1636172,30.1369141 C31.1636172,30.1369141 32.9355286,54.8082865 33.8508333,65.3097266 C48.8699714,64.7742995 61.3062734,54.1016146 64.5229193,39.9251745 L46.1952604,21.5976432 L31.1636172,30.1369141 Z" id="Shape" fill="#273B7A"></path>
                                        <path d="M48.2300365,32.2519531 L17.1032969,32.2519531 C14.9873646,32.2519531 13.2719818,33.9673359 13.2719818,36.0832682 L13.2719818,56.6009974 C18.6961797,60.6098099 25.4042031,62.9812057 32.6667943,62.9812057 C39.9293854,62.9812057 46.6374089,60.6098099 52.0616068,56.6009974 L52.0616068,36.0833958 C52.0614792,33.9673359 50.3460964,32.2519531 48.2300365,32.2519531 Z" id="Shape" fill="#707070"></path>
                                        <path d="M48.2300365,32.2519531 L32.5934219,32.2519531 L32.5934219,62.9804401 C32.6177943,62.9804401 32.6422943,62.9810781 32.6666667,62.9810781 C39.9292578,62.9810781 46.6372813,60.6096823 52.0614792,56.6008698 L52.0614792,36.0833958 C52.0614792,33.9673359 50.3460964,32.2519531 48.2300365,32.2519531 Z" id="Shape" fill="#4C4C4C"></path>
                                        <path d="M47.3017161,41.9570156 L40.7984974,40.8029635 L39.6491667,39.3143333 C39.434026,39.0356458 39.0270964,38.9306276 38.6770781,39.0635911 L32.6667943,38.8512578 L26.6923672,39.0657604 C26.3450286,38.9313932 25.9389922,39.0323281 25.7209167,39.3073151 L24.5348359,40.8027083 L18.0316172,41.9567604 C14.7205443,42.5443776 12.337026,45.1237682 12.337026,48.1200417 L12.337026,58.2354792 C17.9161354,62.6775078 24.9808125,65.3333333 32.6664115,65.3333333 C40.3520104,65.3333333 47.4168151,62.6775078 52.9960521,58.2357344 L52.9960521,48.1202969 C52.9960521,45.124151 50.6129167,42.5445052 47.3017161,41.9570156 Z" id="Shape" fill="#EFEFEF"></path>
                                        <path d="M47.3015885,41.9570156 L40.7983698,40.8029635 L39.6490391,39.3143333 C39.4338984,39.0356458 39.0269687,38.9306276 38.6769505,39.0635911 L32.6666667,38.8513854 L32.5934219,38.8540651 L32.5934219,65.3325677 C32.6177943,65.3325677 32.6420391,65.3334609 32.6666667,65.3334609 C40.3525208,65.3334609 47.4170703,62.6776354 52.9963073,58.235862 L52.9963073,48.1204245 C52.9960521,45.124151 50.6129167,42.5445052 47.3015885,41.9570156 Z" id="Shape" fill="#BCBCBC"></path>
                                        <path d="M45.9561302,41.7182682 L40.7983698,40.8029635 L39.6490391,39.3143333 C39.4338984,39.0356458 39.0269687,38.9306276 38.6769505,39.0635911 L32.6666667,38.8513854 L26.6922396,39.065888 C26.344901,38.9315208 25.9388646,39.0324557 25.7207891,39.3074427 L24.5347083,40.8028359 L19.3769479,41.7181406 C21.3008359,43.7608281 24.0286302,45.0380182 27.0561667,45.0380182 L38.2770391,45.0380182 C41.3045755,45.0380182 44.0322422,43.7608281 45.9561302,41.7182682 Z" id="Shape" fill="#C6C6C6"></path>
                                        <path d="M40.7983698,40.8029635 L39.6490391,39.3143333 C39.4338984,39.0356458 39.0269688,38.9306276 38.6769505,39.0635911 L32.6666667,38.8513854 L32.5934219,38.8540651 L32.5934219,45.0380182 L38.2771667,45.0380182 C41.3047031,45.0380182 44.0322422,43.7608281 45.9563854,41.7181406 L40.7983698,40.8029635 Z" id="Shape" fill="#7F7F7F"></path>
                                        <path d="M38.2769115,42.1782812 L27.0560391,42.1782812 C21.22925,42.1782812 16.5057266,37.4547578 16.5057266,31.6279687 L16.5057266,29.4114844 C16.5057266,22.2786667 22.2881094,16.4964115 29.4207995,16.4961562 L35.9118958,16.4961562 C43.0447135,16.4961562 48.827224,22.2785391 48.827224,29.4112292 L48.827224,31.6274583 C48.8273516,37.4547578 44.1039557,42.1782812 38.2769115,42.1782812 Z" id="Shape" fill="#EFEFEF"></path>
                                        <path d="M35.9122786,16.4962839 L32.5934219,16.4962839 L32.5934219,42.1782812 L38.2771667,42.1782812 C44.1039557,42.1782812 48.8274792,37.4547578 48.8274792,31.6279687 L48.8274792,29.4117396 C48.8273516,22.2786667 43.0449687,16.4962839 35.9122786,16.4962839 Z" id="Shape" fill="#D8D8D8"></path>
                                        <path d="M22.8250677,25.4326589 C21.5053854,25.4326589 20.3509505,26.3281849 20.0297708,27.6081823 C19.807612,28.4940104 19.6894505,29.4214375 19.6894505,30.3761719 L19.6894505,30.3761719 C19.6894505,35.4970547 23.8406693,39.6482734 28.9615521,39.6482734 L36.371526,39.6482734 C41.4924089,39.6482734 45.6436276,35.4970547 45.6436276,30.3761719 L45.6436276,30.3761719 C45.6436276,29.4213099 45.5254661,28.4940104 45.3033073,27.6081823 C44.9823828,26.3281849 43.8279479,25.4324036 42.5080104,25.4324036 L22.8250677,25.4324036 L22.8250677,25.4326589 L22.8250677,25.4326589 Z" id="Shape" fill="#FFC61B"></path>
                                        <path d="M45.3034349,27.6085651 C44.9825104,26.3285677 43.8278203,25.4330417 42.508138,25.4330417 L32.5932943,25.4330417 L32.5932943,39.6489115 L36.3716536,39.6489115 C41.4925365,39.6489115 45.6437552,35.4976927 45.6437552,30.3768099 C45.6437552,29.4218203 45.5257214,28.4943932 45.3034349,27.6085651 Z" id="Shape" fill="#D48B07"></path>
                                        <path d="M21.4478359,63.355724 C24.9466146,64.6350833 28.7251016,65.3333333 32.6666667,65.3333333 C36.6082318,65.3333333 40.3867187,64.6350833 43.8854974,63.355724 L43.8854974,57.8173203 C43.8854974,56.5619505 42.8678542,55.5443073 41.6124844,55.5443073 L23.7211042,55.5443073 C22.4657344,55.5443073 21.4478359,56.5619505 21.4478359,57.8173203 L21.4478359,63.355724 L21.4478359,63.355724 Z" id="Shape" fill="#BABABA"></path>
                                        <g id="Group" transform="translate(32.539063, 41.726562)" fill="#7F7F7F">
                                            <path d="M9.07316667,13.8177448 L0.0541041667,13.8177448 L0.0541041667,23.6058776 C0.0784765625,23.6058776 0.102976562,23.6067708 0.127348958,23.6067708 C4.06891406,23.6067708 7.84740104,22.9085208 11.3461797,21.6291615 L11.3461797,16.0907578 C11.3464349,14.835388 10.3286641,13.8177448 9.07316667,13.8177448 Z" id="Shape"></path>
                                            <path d="M13.6561979,0.0341979167 L13.6561979,20.6806797 C14.5976615,20.2515469 15.5147526,19.7783906 16.4059401,19.2649115 L16.4059401,0.714328125 C15.8914401,0.498039063 15.3417214,0.333302083 14.7626536,0.230580729 L13.6561979,0.0341979167 Z" id="Shape"></path>
                                        </g>
                                        <path d="M16.3883307,42.440763 L16.3883307,60.991474 C17.2795182,61.5046979 18.1966094,61.9781094 19.1380729,62.4072422 L19.1380729,41.7605052 L18.031362,41.956888 C17.4525495,42.059737 16.9028307,42.224474 16.3883307,42.440763 Z" id="Shape" fill="#BABABA"></path>
                                    </g>
                                </g>
                            </g>
                        </g>
                    </g>
                </g>
            </g>
        </g>
    </g>
</svg>