<?xml version="1.0" encoding="UTF-8"?>
<svg width="68px" height="68px" viewBox="0 0 68 68" version="1.1" xmlns="http://www.w3.org/2000/svg" xmlns:xlink="http://www.w3.org/1999/xlink">
    <!-- Generator: Sketch 49.2 (51160) - http://www.bohemiancoding.com/sketch -->
    <title>Icons/Jij</title>
    <desc>Created with Sketch.</desc>
    <defs>
        <filter x="-11.7%" y="-8.3%" width="123.3%" height="123.3%" filterUnits="objectBoundingBox" id="filter-1">
            <feOffset dx="0" dy="2" in="SourceAlpha" result="shadowOffsetOuter1"></feOffset>
            <feGaussianBlur stdDeviation="2" in="shadowOffsetOuter1" result="shadowBlurOuter1"></feGaussianBlur>
            <feColorMatrix values="0 0 0 0 0   0 0 0 0 0   0 0 0 0 0  0 0 0 0.2 0" type="matrix" in="shadowBlurOuter1" result="shadowMatrixOuter1"></feColorMatrix>
            <feMerge>
                <feMergeNode in="shadowMatrixOuter1"></feMergeNode>
                <feMergeNode in="SourceGraphic"></feMergeNode>
            </feMerge>
        </filter>
        <circle id="path-2" cx="30" cy="30" r="30"></circle>
    </defs>
    <g id="Page-1" stroke="none" stroke-width="1" fill="none" fill-rule="evenodd">
        <g id="Desktop" transform="translate(-900.000000, -478.000000)">
            <g id="Content" transform="translate(249.000000, 91.000000)">
                <g id="2" transform="translate(356.000000, 362.000000)">
                    <g id="Icons/Jij" transform="translate(299.000000, 27.000000)">
                        <g filter="url(#filter-1)">
                            <mask id="mask-3" fill="white">
                                <use xlink:href="#path-2"></use>
                            </mask>
                            <use id="Mask" fill="#59B3FF" xlink:href="#path-2"></use>
                            <g id="diver" mask="url(#mask-3)">
                                <g transform="translate(-4.000000, -1.333333)" id="Layer_1">
                                    <g>
                                        <circle id="Oval" fill="#71E2EF" cx="34.6666667" cy="34.6666667" r="34.6666667"></circle>
                                        <path d="M27.7023229,51.5914479 L44.135,68.024125 C58.6783438,63.9040729 69.3333333,50.5297812 69.3333333,34.6666667 C69.3333333,34.5744479 69.3304896,34.4827708 69.3298125,34.3906875 L48.595625,13.6565 L27.7023229,51.5914479 Z" id="Shape" fill="#38C6D9"></path>
                                        <rect id="Rectangle-path" fill="#FCD088" x="28.8888437" y="39.5713229" width="11.5555104" height="14.1234167"></rect>
                                        <rect id="Rectangle-path" fill="#DDAB62" x="34.7437187" y="39.5713229" width="5.69982292" height="14.1234167"></rect>
                                        <path d="M47.0612187,27.82 C47.123375,27.2452917 47.1557396,26.6787083 47.1557396,26.1260729 C47.1557396,18.8170937 41.5639792,12.8920729 34.6663958,12.8920729 C27.7688125,12.8920729 22.1773229,18.8169583 22.1773229,26.1260729 C22.1773229,26.6785729 22.2098229,27.2451562 22.2718437,27.82 C21.0605417,28.1349792 20.4840729,29.9984479 20.9845729,31.9931354 C21.4866979,33.9940521 22.8823021,35.3678542 24.1015937,35.0618125 C24.2127708,35.0340521 24.3163646,34.9889583 24.4165729,34.9362812 C26.6735625,39.4662396 30.4224375,43.1417187 34.6666667,43.1417187 C38.9108958,43.1417187 42.6599062,39.4666458 44.9167604,34.9362812 C45.0169687,34.9890937 45.1205625,35.0340521 45.2317396,35.0618125 C46.4510312,35.3678542 47.8465,33.9940521 48.3487604,31.9931354 C48.849125,29.9984479 48.2727917,28.1345729 47.0612187,27.82 Z" id="Shape" fill="#FFEDB5"></path>
                                        <path d="M47.0612187,27.82 C47.123375,27.2452917 47.1557396,26.6787083 47.1557396,26.1260729 C47.1557396,18.8448542 41.6060937,12.9387917 34.7443958,12.8941042 L34.7443958,43.1392812 C38.9563958,43.0944583 42.6735833,39.4382083 44.9164896,34.9362812 C45.0166979,34.9890937 45.1202917,35.0339167 45.2314687,35.0618125 C46.4507604,35.3678542 47.8462292,33.9940521 48.3484896,31.9931354 C48.849125,29.9984479 48.2727917,28.1345729 47.0612187,27.82 Z" id="Shape" fill="#E8CF89"></path>
                                        <path d="M27.6439583,23.1111562 C27.6439583,23.1111562 33.0715937,28.3053333 44.1601875,26.4378021 C44.1601875,26.4378021 45.2353958,26.1672396 47.0614896,27.82 C47.0614896,27.82 50.4050625,20.8350729 48.5958958,13.6566354 C48.5958958,13.6566354 42.7013437,14.415375 40.0750729,12.7811667 C37.4488021,11.1470938 30.4454583,9.39615625 28.86975,14.2985104 C28.86975,14.2985104 23.7923021,13.6565 22.3916875,18.9090417 C20.9910729,24.1615833 22.2721146,27.8198646 22.2721146,27.8198646 C22.2721146,27.8198646 24.9009583,21.4769479 27.6439583,23.1111562 Z" id="Shape" fill="#494948"></path>
                                        <path d="M48.595625,13.6565 C48.595625,13.6565 42.7010729,14.4152396 40.0748021,12.7810313 C38.8893646,12.0432813 36.8119375,11.2841354 34.7445312,11.1216354 L34.7445312,26.362375 C37.2244167,26.8879271 40.3593125,27.0776458 44.1600521,26.4375312 C44.1600521,26.4375312 45.2352604,26.1669687 47.0613542,27.8197292 C47.0612187,27.82 50.4049271,20.8350729 48.595625,13.6565 Z" id="Shape" fill="#333333"></path>
                                        <path d="M52.3308229,53.3782708 L49.5294583,53.3782708 L49.5294583,43.5735625 C49.5294583,42.1553437 48.3797708,41.0056562 46.9615521,41.0056562 L37.1568437,41.0056562 L37.1568437,38.2042917 L47.6910417,38.2042917 C50.2535312,38.2042917 52.3308229,40.2814479 52.3308229,42.8440729 L52.3308229,53.3782708 L52.3308229,53.3782708 Z" id="Shape" fill="#121149"></path>
                                        <circle id="Oval" fill="#B3E0E2" cx="34.6666667" cy="39.7208229" r="3.65733333"></circle>
                                        <path d="M38.324,39.7216354 C38.324,37.7280312 36.7281146,36.1102083 34.7445312,36.0682292 L34.7445312,43.3750417 C36.72825,43.3330625 38.324,41.715375 38.324,39.7216354 Z" id="Shape" fill="#38C6D9"></path>
                                        <g id="Group" transform="translate(30.062500, 35.072917)" fill="#386895">
                                            <path d="M4.60416667,9.23975 C2.07241667,9.23975 0.013,7.18033333 0.013,4.64885417 C0.013,2.11710417 2.07241667,0.0576875 4.60416667,0.0576875 C7.13591667,0.0576875 9.19533333,2.11710417 9.19533333,4.64885417 C9.19533333,7.18019792 7.13591667,9.23975 4.60416667,9.23975 Z M4.60416667,1.92521875 C3.102125,1.92521875 1.88053125,3.1468125 1.88053125,4.64885417 C1.88053125,6.150625 3.102125,7.37221875 4.60416667,7.37221875 C6.10620833,7.37221875 7.32780208,6.150625 7.32780208,4.64885417 C7.32780208,3.14708333 6.10620833,1.92521875 4.60416667,1.92521875 Z" id="Shape"></path>
                                            <path d="M9.19533333,4.64871875 C9.19533333,2.143375 7.177625,0.103729167 4.68216667,0.0614791667 L4.68216667,1.92901042 C6.14791667,1.97085417 7.32780208,3.17308333 7.32780208,4.64858333 C7.32780208,6.12394792 6.14778125,7.32617708 4.68216667,7.36802083 L4.68216667,9.23555208 C7.17748958,9.19370833 9.19533333,7.15392708 9.19533333,4.64871875 Z" id="Shape"></path>
                                        </g>
                                        <path d="M50.1977396,49.5179479 L43.2963646,48.2932396 L42.0766667,46.7134687 C41.8483542,46.4177187 41.4165104,46.3062708 41.0450625,46.447375 L39.5771458,47.9276146 C36.8740937,50.6532812 32.4657396,50.6471875 29.7702708,47.9138021 L28.3264583,46.4496771 C27.9578542,46.3070833 27.5269583,46.4141979 27.2955312,46.7060208 L26.0368333,48.2929687 L19.1354583,49.5176771 C15.6216667,50.1412708 13.0922187,52.8785833 13.0922187,56.0583021 L13.0922187,61.8010521 C19.0130417,66.5149062 26.51025,69.3333333 34.6666667,69.3333333 C42.8230833,69.3333333 50.3201562,66.5149062 56.2409792,61.8011875 L56.2409792,56.0584375 C56.2409792,52.8789896 53.7116667,50.1415417 50.1977396,49.5179479 Z" id="Shape" fill="#366695"></path>
                                        <path d="M56.2409792,56.0584375 C56.2409792,52.8788542 53.7115312,50.1412708 50.1977396,49.5178125 L43.2963646,48.2931042 L42.0766667,46.7133333 C41.8483542,46.4175833 41.4165104,46.3062708 41.0450625,46.4472396 L39.5771458,47.9274792 C38.244375,49.2714896 36.4970937,49.9497917 34.7445312,49.9661771 L34.7445312,69.3323854 C42.8704792,69.314375 50.3389792,66.5000104 56.2408437,61.8011875 L56.2409792,56.0584375 L56.2409792,56.0584375 Z" id="Shape" fill="#273B7A"></path>
                                        <path d="M46.4946354,67.262 C47.7219167,66.8166146 48.9158854,66.3025729 50.0741042,65.7269167 L50.0741042,48.5954896 L46.4946354,47.8173854 L46.4946354,67.262 L46.4946354,67.262 Z" id="Shape" fill="#121149"></path>
                                        <path d="M19.2592292,65.7270521 C20.4173125,66.3027083 21.6114167,66.8164792 22.8386979,67.262 L22.8386979,47.8173854 L19.2592292,48.595625 L19.2592292,65.7270521 Z" id="Shape" fill="#273B7A"></path>
                                        <path d="M34.6666667,30.1773333 C35.7298229,30.1773333 35.3432083,32.7868125 36.3580208,33.4633542 C37.3728333,34.1398958 40.5980521,34.71975 43.255875,34.8164375 C45.9136979,34.913125 47.2788333,27.2299896 44.8143854,26.65 C42.3499375,26.0700104 37.2231979,25.3936042 34.6669375,25.3936042 C32.1106771,25.3936042 26.9838021,26.0701458 24.5194896,26.65 C22.0550417,27.2298542 23.4201771,34.9129896 26.078,34.8164375 C28.7358229,34.71975 31.9610417,34.1398958 32.9758542,33.4633542 C33.990125,32.7866771 33.6035104,30.1773333 34.6666667,30.1773333 Z" id="Shape" fill="#71E2EF"></path>
                                        <path d="M44.81425,26.6498646 C42.3740417,26.0758333 37.3253021,25.4072813 34.7445312,25.3941458 L34.7445312,30.1835625 C35.7103229,30.3103125 35.3689375,32.8040104 36.3578854,33.4632187 C37.3726979,34.1397604 40.5979167,34.7196146 43.2557396,34.8163021 C45.9134271,34.9127187 47.2785625,27.2298542 44.81425,26.6498646 Z" id="Shape" fill="#38C6D9"></path>
                                        <path d="M43.3085521,35.6343542 C43.2811979,35.6343542 43.2539792,35.6339479 43.2260833,35.633 C40.5813958,35.5368542 37.119875,34.9532083 35.9047813,34.1431458 C35.1491563,33.6396667 34.9408854,32.69175 34.7573958,31.8555521 C34.7312604,31.7365208 34.70025,31.5956875 34.6665313,31.4586458 C34.6329479,31.5956875 34.6020729,31.7363854 34.5756667,31.8555521 C34.3921771,32.69175 34.1839063,33.6395312 33.4282813,34.1431458 C32.2131875,34.9532083 28.7516667,35.5368542 26.1069792,35.633 C26.0794896,35.6339479 26.0518646,35.6343542 26.0245104,35.6343542 C24.0616458,35.6343542 22.8209583,33.0650937 22.4956875,30.6453333 C22.1450937,28.039375 22.8487187,26.2038021 24.3315312,25.8548333 C26.791375,25.2760625 31.9498021,24.5767708 34.6663958,24.5767708 C37.3829896,24.5767708 42.5411458,25.2759271 45.0012604,25.8548333 C46.4843438,26.2038021 47.1876979,28.039375 46.8371042,30.6453333 C46.5119688,33.0648229 45.2711458,35.6340833 43.3085521,35.6343542 Z M34.6666667,29.3605 C35.8824375,29.3605 36.1658646,30.6510208 36.3535521,31.5052292 C36.447125,31.9317917 36.6038021,32.6455729 36.8113958,32.7838333 C37.5473854,33.2745833 40.3873438,33.8947917 43.2855313,34.0001458 C43.2918958,34.0004167 43.2983958,34.0005521 43.304625,34.0005521 C44.0701354,34.0005521 44.9602292,32.3429167 45.2176563,30.4278542 C45.4466458,28.7255312 45.0892813,27.5543125 44.6271042,27.4458437 C42.2655729,26.8899583 37.2055938,26.2111146 34.6666667,26.2111146 C32.1277396,26.2111146 27.0677604,26.8899583 24.7062292,27.4458437 C24.2440521,27.5545833 23.8864167,28.7255312 24.1156771,30.4278542 C24.3755417,32.3588958 25.2728125,34.0277708 26.0479375,34.0000104 C28.946125,33.8947917 31.7860833,33.2744479 32.5220729,32.7836979 C32.7296667,32.6454375 32.8862083,31.9317917 32.9799167,31.5050937 C33.1674688,30.6508854 33.4508958,29.3605 34.6666667,29.3605 Z" id="Shape" fill="#366695"></path>
                                        <path d="M45.0015312,25.8545625 C42.5645729,25.2809375 37.480625,24.5900417 34.7446667,24.5771771 L34.7446667,26.21125 C37.3074271,26.2245208 42.2891354,26.8949687 44.6271042,27.4453021 C45.0892812,27.5540417 45.4469167,28.7249896 45.2176562,30.4273125 C44.9599583,32.3422396 44.07,34.0000104 43.304625,34.0000104 C43.2982604,34.0000104 43.2917604,33.9997396 43.2855312,33.9996042 C40.3873437,33.8943854 37.5473854,33.2740417 36.8113958,32.7832917 C36.6038021,32.6450312 36.4472604,31.9313854 36.3535521,31.5046875 C36.1700625,30.6698437 35.8927292,29.4211667 34.7446667,29.365375 L34.7446667,31.7975937 C34.7488646,31.8165521 34.7534687,31.8375417 34.7575312,31.8552812 C34.9410208,32.6914792 35.1492917,33.6392604 35.9049167,34.142875 C37.1200104,34.9529375 40.5815312,35.5365833 43.2262187,35.6327292 C43.2537083,35.6336771 43.2810625,35.6340833 43.3086875,35.6340833 C45.2712812,35.6338125 46.5122396,33.0645521 46.8375104,30.6450625 C47.1879687,28.0391042 46.4843437,26.2035312 45.0015312,25.8545625 Z" id="Shape" fill="#273B7A"></path>
                                    </g>
                                </g>
                            </g>
                        </g>
                    </g>
                </g>
            </g>
        </g>
    </g>
</svg>